<svg width="125" height="120" viewBox="0 0 125 120" fill="none" xmlns="http://www.w3.org/2000/svg">
<path d="M41.467 90.1594C44.109 90.192 46.7396 90.2059 49.3586 90.2013C49.5193 90.2005 49.6345 90.2326 49.7042 90.2977C52.3642 92.7546 55.5704 93.7239 59.3227 93.2055C59.9294 93.1218 60.5338 93.0265 61.1356 92.9196C61.266 92.8972 61.3911 92.9123 61.5108 92.965C69.7676 96.6351 79.1266 97.0721 87.7758 94.4026C88.0078 94.3305 88.2386 94.2546 88.4682 94.1748" stroke="#727881" stroke-width="0.429688"/>
<path d="M88.4684 94.1749C92.9098 92.7442 97.1004 90.3861 100.28 87.1378C100.509 86.9042 100.858 86.9821 101.114 86.9333C104.16 86.3591 105.887 84.6298 107.219 82.0765C109.504 77.6973 110.915 73.109 111.452 68.3115C111.812 65.0938 111.842 61.6355 111.542 57.9366C111.477 57.1339 111.387 56.3638 111.271 55.6262C110.771 52.4395 109.972 49.319 108.874 46.2647C108.649 45.6395 108.677 44.9329 108.65 44.2832C108.48 40.2353 104.7 36.8928 100.463 36.8045C100.017 36.7944 99.5648 36.7813 99.1065 36.765C99.0659 36.7635 99.0272 36.7487 98.997 36.7231C97.9023 35.8221 97.1684 35.2359 96.7953 34.9648C90.2002 30.1661 81.7871 27.9044 73.4663 28.4495C67.603 28.833 61.8147 30.8413 56.8936 33.9432C56.0367 34.4832 55.2109 35.0368 54.4164 35.604C54.3319 35.6643 54.2281 35.6965 54.1212 35.6958L51.596 35.676C51.546 35.6752 51.5194 35.6516 51.5161 35.6051C51.4406 34.6204 50.9942 33.8281 50.1766 33.2284C49.3345 32.6117 48.4366 32.2937 47.483 32.2743C45.7938 32.241 42.6984 32.239 38.1966 32.2685C35.9286 32.2824 34.1389 33.4156 33.7662 35.59C33.7589 35.635 33.731 35.6566 33.6826 35.6551C32.1189 35.6249 30.5388 35.6187 28.9423 35.6365C26.8341 35.659 24.983 36.3075 23.3889 37.582C21.341 39.2195 19.9093 41.6764 19.9081 44.2541C19.9048 55.8079 19.904 67.3616 19.9056 78.9153C19.9056 80.1682 19.9208 80.9433 19.9511 81.2409C20.4296 85.9605 24.8206 90.1374 29.9558 90.1607C32.4994 90.1723 36.3365 90.1719 41.4671 90.1595" stroke="#8C8D93" stroke-width="0.429688"/>
<path d="M88.4684 94.1749C88.3905 94.1625 88.3241 94.1179 88.2692 94.0412C88.2471 94.0115 88.2135 93.991 88.1757 93.9843C87.9728 93.9483 87.7956 93.9006 87.5865 93.8878C86.8596 93.8402 86.0626 93.6658 85.4427 93.5984C84.6604 93.5132 83.8773 93.4303 83.0934 93.3497C82.4284 93.2815 81.7642 93.206 81.1009 93.1231C80.6802 93.0696 80.2559 93.0661 79.8315 93.0464C79.7495 93.0425 79.7315 93.0018 79.7774 92.9243" stroke="#E4E9EC" stroke-width="0.429688"/>
<path d="M79.7773 92.9245C82.7678 92.5743 85.6653 91.8878 88.4696 90.8651C91.7721 89.6611 94.761 87.848 97.3501 85.5632C97.8798 85.096 98.3845 84.64 98.8642 84.1953C98.9576 84.1077 99.0783 84.0507 99.2086 84.0326C99.6595 83.9698 100.128 83.8912 100.614 83.7966C102.548 83.4201 103.539 82.2707 104.388 80.6866C105.953 77.7641 107.097 74.7436 107.82 71.625C108.607 68.2349 108.687 64.6042 108.465 61.1514C108.462 61.0948 108.424 60.9654 108.351 60.7632" stroke="#8C8D93" stroke-width="0.429688"/>
<path d="M108.351 60.7633L108.138 57.9204" stroke="#E4E9EC" stroke-width="0.429688"/>
<path d="M108.138 57.9204C109.009 58.1428 109.54 57.9909 109.732 57.4648C109.825 57.2092 109.814 56.7888 109.698 56.2039C109.142 53.4065 108.089 50.6777 106.734 48.1917C106.37 47.5246 106.008 46.8777 105.65 46.2509C105.59 46.1457 105.561 46.0284 105.564 45.9103C105.582 45.2665 105.611 44.5355 105.499 43.9369C105.227 42.4858 104.411 41.36 103.051 40.5596C101.782 39.8112 100.382 39.7519 98.927 39.8983" stroke="#8C8D93" stroke-width="0.429688"/>
<path d="M98.927 39.8982L97.3969 39.9098C97.3864 39.91 97.3762 39.9131 97.3677 39.9188C97.3591 39.9244 97.3524 39.9323 97.3486 39.9415C97.3448 39.9508 97.344 39.9608 97.3462 39.9705C97.3484 39.9802 97.3537 39.989 97.3612 39.9958C98.6035 41.122 99.7363 42.2156 100.888 43.5266C101.352 44.0557 101.823 44.5772 102.302 45.0909" stroke="#E4E9EC" stroke-width="0.429688"/>
<path d="M102.302 45.0908L104.044 47.907" stroke="#8C8D93" stroke-width="0.429688"/>
<path d="M104.046 47.907C103.809 48.1139 103.702 48.399 103.724 48.7624C103.744 49.0924 103.75 49.3028 103.74 49.3934C103.583 50.912 103.324 52.4151 102.961 53.9027C102.929 54.0329 102.953 54.158 103.033 54.2781C103.085 54.3571 103.081 54.4257 103.019 54.4838" stroke="#E4E9EC" stroke-width="0.429688"/>
<path d="M103.019 54.4838C102.38 53.6369 101.75 52.7843 101.131 51.9258C99.8396 50.1314 98.542 48.4288 97.2357 46.6878C97.1127 46.5251 97.0586 46.2218 97.0402 46.0219C96.9114 44.6125 96.7564 43.2055 96.5752 41.8008C96.5515 41.6164 96.4785 41.4525 96.3563 41.3092C94.932 39.6356 93.7401 37.8494 92.4118 36.1154C92.1178 35.7307 91.7832 35.4611 91.3823 35.2298C90.5975 34.7757 89.7439 34.3554 88.8214 33.9688C83.5235 31.749 78.0116 30.9692 72.2856 31.6293C68.8072 32.0303 65.394 33.0716 62.2576 34.5441C61.9411 34.6928 61.6323 34.8513 61.3314 35.0194C61.2051 35.0899 61.194 35.1744 61.2982 35.2728C61.4761 35.4401 61.6057 35.6338 61.6869 35.8539C61.691 35.8651 61.6974 35.8753 61.7058 35.8841C61.7142 35.8929 61.7244 35.9 61.7358 35.905C61.7471 35.91 61.7594 35.9127 61.7719 35.9131C61.7845 35.9135 61.7969 35.9116 61.8086 35.9073C64.5474 34.8869 67.3595 34.0978 70.2451 33.54C70.35 33.5198 70.3701 33.55 70.3053 33.6306C69.8593 34.1838 69.4042 34.7579 68.9401 35.353C68.8302 35.494 68.6682 35.6044 68.4542 35.6842C67.4177 36.07 66.2644 36.5659 64.9943 37.1718C62.7139 38.2588 60.4938 39.4466 58.3339 40.7351C57.9428 40.9675 57.5012 41.2151 56.9871 41.1569C56.0745 41.0539 55.1577 41.0113 54.2369 41.0291C53.9109 41.0349 53.735 41.1546 53.5186 41.3568C49.7392 44.8721 47.2223 49.0691 45.9677 53.948C45.9608 53.9755 45.9443 53.9999 45.9209 54.0174C45.8974 54.0349 45.8684 54.0445 45.8386 54.0445L27.6853 54.0305" stroke="#8C8D93" stroke-width="0.429688"/>
<path d="M27.6852 54.0305C27.6667 52.0734 27.7061 50.1047 27.6901 48.1766C27.6811 47.1345 27.6774 46.0928 27.679 45.0515C27.6802 44.4367 27.5892 44.016 26.9103 43.8916C26.3469 43.7882 25.3531 44.0136 25.3261 44.6935C25.317 44.9198 25.2576 45.0898 25.1477 45.2037" stroke="#E4E9EC" stroke-width="0.429688"/>
<path d="M25.1477 45.2036C24.946 43.0234 26.3248 41.2452 28.5486 40.8001C29.23 40.6629 30.1169 40.6781 30.8782 40.6781C37.3922 40.6773 43.8988 40.6823 50.398 40.6932C50.5101 40.6932 50.618 40.6524 50.6993 40.5793C51.3939 39.9579 52.0986 39.3559 52.8137 38.7732C52.8661 38.7306 52.892 38.6853 52.8912 38.6373C52.8912 38.6228 52.8851 38.6089 52.8742 38.5986C52.8634 38.5884 52.8487 38.5826 52.8333 38.5826L48.649 38.5861C48.6072 38.5861 48.5672 38.5704 48.5376 38.5425C48.5081 38.5146 48.4915 38.4768 48.4915 38.4374C48.4932 37.9531 48.4886 37.4561 48.478 36.9463C48.4522 35.6004 47.9257 35.3169 46.5223 35.3134C43.9008 35.3056 41.2793 35.3084 38.6578 35.3215C37.648 35.3262 36.7981 35.6074 36.7932 36.7289C36.7899 37.3387 36.778 37.931 36.7575 38.5059C36.7551 38.5664 36.7214 38.5962 36.6567 38.5954C34.2295 38.5822 31.8319 38.5799 29.4637 38.5884C28.7356 38.5919 27.9053 38.6128 27.0419 38.9708C24.839 39.8866 23.0137 41.9867 23.0469 44.3424C23.0584 45.1536 23.056 46.0005 23.0396 46.883" stroke="#8C8D93" stroke-width="0.429688"/>
<path d="M23.0398 46.8831L23.0359 54.027" stroke="#E4E9EC" stroke-width="0.429688"/>
<path d="M23.0359 54.0271C22.983 62.8749 23.0408 71.7249 23.0691 80.5727C23.079 83.427 25.4823 86.2639 28.4035 86.9659C28.8939 87.0844 29.7085 87.1472 30.8475 87.1542C34.9028 87.1797 38.9691 87.196 43.0255 87.1658" stroke="#8C8D93" stroke-width="0.429688"/>
<path d="M43.0233 87.1658C43.0339 87.1735 43.0437 87.1805 43.0528 87.1867C43.0691 87.1983 43.0732 87.2127 43.065 87.2297C43.0577 87.2475 43.0487 87.2669 43.038 87.2878C43.0331 87.2963 43.0253 87.3014 43.0147 87.3029C42.8022 87.3285 42.6413 87.3517 42.4091 87.3331C41.4916 87.2646 41.3516 88.0863 41.3405 88.7662C41.3315 89.3094 41.3737 89.7739 41.4671 90.1597" stroke="#E4E9EC" stroke-width="0.429688"/>
<path d="M108.138 57.9204C107.85 57.7267 107.67 57.452 107.598 57.0964C106.972 53.9992 105.762 50.7055 104.046 47.907" stroke="#727881" stroke-width="0.429688"/>
<path d="M102.302 45.0909C102.611 44.7631 102.958 44.4919 103.344 44.2773C103.387 44.2525 103.393 44.2215 103.361 44.1844C102.044 42.6549 100.566 41.2262 98.927 39.8982" stroke="#727881" stroke-width="0.429688"/>
<path d="M25.1477 45.2036L25.1256 45.5627C25.1231 45.6015 25.1047 45.6313 25.0702 45.6522L23.0396 46.8831" stroke="#727881" stroke-width="0.429688"/>
<path d="M103.019 54.4836C103.757 55.4924 104.483 56.5109 105.196 57.539C105.43 57.8761 105.588 58.0833 105.672 58.1608C106.543 58.9813 107.436 59.8487 108.351 60.763" stroke="#727881" stroke-width="0.429688"/>
<path d="M79.7774 92.9245C75.4098 93.3312 71.0163 92.9303 66.8467 91.6763C65.5183 91.2773 64.2809 90.85 63.1346 90.3944C62.2883 90.0585 61.4212 89.7459 60.5209 89.9272C58.0363 90.4293 55.1692 90.6047 53.061 88.9881C52.4952 88.555 51.9282 88.1235 51.36 87.6935C50.9553 87.3878 50.7118 87.1937 50.2505 87.1902C47.8439 87.1732 45.4356 87.165 43.0256 87.1658" stroke="#727881" stroke-width="0.429688"/>
<path d="M23.0359 54.0271L27.6852 54.0308" stroke="#727881" stroke-width="0.429688"/>
<path d="M34.4204 46.1865C34.4208 45.9282 34.3127 45.6803 34.1198 45.4973C33.9268 45.3144 33.6648 45.2113 33.3915 45.2109L30.3214 45.2058C30.0481 45.2054 29.7857 45.3075 29.5921 45.4899C29.3984 45.6722 29.2894 45.9197 29.2889 46.178L29.2817 50.0621C29.2813 50.3204 29.3894 50.5683 29.5824 50.7512C29.7753 50.9342 30.0373 51.0372 30.3107 51.0377L33.3807 51.0427C33.654 51.0432 33.9164 50.941 34.11 50.7587C34.3037 50.5764 34.4127 50.3288 34.4132 50.0705L34.4204 46.1865Z" stroke="#8C8D93" stroke-width="0.429688"/>
<path d="M42.6049 46.1464C42.6051 46.0243 42.5799 45.9033 42.5306 45.7904C42.4814 45.6776 42.4091 45.5749 42.3179 45.4885C42.2267 45.402 42.1183 45.3333 41.999 45.2864C41.8797 45.2395 41.7518 45.2152 41.6226 45.215L37.6793 45.2085C37.5501 45.2083 37.4221 45.2321 37.3026 45.2786C37.1832 45.3252 37.0746 45.3935 36.983 45.4797C36.8915 45.5659 36.8188 45.6682 36.7692 45.7809C36.7195 45.8937 36.6938 46.0145 36.6936 46.1366L36.6863 50.1043C36.6861 50.2264 36.7113 50.3474 36.7605 50.4603C36.8098 50.5731 36.8821 50.6758 36.9733 50.7622C37.0645 50.8487 37.1728 50.9174 37.2921 50.9643C37.4114 51.0112 37.5393 51.0355 37.6686 51.0357L41.6119 51.0422C41.7411 51.0424 41.8691 51.0186 41.9885 50.9721C42.108 50.9255 42.2166 50.8572 42.3081 50.771C42.3997 50.6849 42.4723 50.5825 42.522 50.4698C42.5717 50.357 42.5973 50.2362 42.5976 50.1141L42.6049 46.1464Z" stroke="#8C8D93" stroke-width="0.429688"/>
<path d="M59.8098 48.825C65.4492 48.0963 71.3372 49.4305 75.786 52.8473C75.8172 52.8713 75.8438 52.8675 75.8659 52.8357L78.8204 48.438C78.833 48.4187 78.8387 48.3961 78.8364 48.3736C78.8342 48.3511 78.8242 48.33 78.8081 48.3136C75.4305 44.9549 71.9214 41.7077 68.411 38.4629C68.4025 38.4551 68.3916 38.4502 68.3799 38.4487C68.3681 38.4472 68.3562 38.4494 68.3459 38.4548C65.2906 40.0648 62.2632 41.7294 59.2637 43.4487C59.171 43.5022 59.1144 43.5905 59.0939 43.7137C58.8037 45.491 58.5187 47.2622 58.2391 49.0272C58.2372 49.0398 58.2386 49.0527 58.2433 49.0647C58.248 49.0766 58.2557 49.0873 58.2658 49.0957C58.276 49.1042 58.2882 49.1101 58.3013 49.1129C58.3145 49.1158 58.3282 49.1155 58.3412 49.112C58.8258 48.985 59.3153 48.8893 59.8098 48.825Z" stroke="#8C8D93" stroke-width="0.429688"/>
<path d="M93.7832 71.2263L96.3514 71.4193C96.3858 71.4217 96.4204 71.415 96.4512 71.4001C96.482 71.3851 96.5079 71.3624 96.5261 71.3344C97.0344 70.5581 97.5342 69.7616 98.0254 68.945C99.7949 66.0046 101.523 63.0468 103.21 60.0716C103.223 60.0485 103.229 60.0225 103.228 59.9965C103.226 59.9706 103.218 59.9455 103.202 59.924L101.137 56.9849" stroke="#727881" stroke-width="0.429688"/>
<path d="M101.137 56.9847L95.1963 49.0121C95.1785 48.9885 95.1548 48.9694 95.1273 48.9566C95.0999 48.9439 95.0694 48.9377 95.0388 48.9388L81.8805 49.4618C81.8338 49.4634 81.7981 49.4828 81.7735 49.5199L78.2385 54.7545C78.2262 54.7732 78.2207 54.7952 78.2229 54.8171C78.2251 54.839 78.2349 54.8594 78.2508 54.8753C79.1094 55.7528 79.9556 56.693 80.6542 57.6611C83.4167 61.4905 84.8312 65.9475 84.7205 70.6032C84.7198 70.6321 84.7308 70.66 84.7512 70.6813C84.7716 70.7025 84.7999 70.7154 84.83 70.7171L93.783 71.2262" stroke="#8C8D93" stroke-width="0.429688"/>
<path d="M101.137 56.9849C100.644 58.4314 100.268 59.4661 100.009 60.0891C99.5973 61.0781 99.2086 62.0962 98.7449 63.0375C97.3797 65.8047 96.1423 67.978 94.4056 70.5186C94.1752 70.8556 93.9677 71.0915 93.7832 71.2263" stroke="#E4E9EC" stroke-width="0.429688"/>
<path d="M43.3799 75.3706C43.5939 75.9587 43.9129 76.6107 44.3368 77.3266C48.8742 84.9994 58.7079 88.1605 66.6105 82.6169" stroke="#727881" stroke-width="0.429688"/>
<path d="M66.6104 82.6169C69.9092 80.2189 71.9969 77.0969 72.8734 73.2508C74.775 64.9086 69.2487 55.6808 60.121 53.9607C55.6451 53.117 50.8236 54.4872 47.4904 57.481C42.3675 62.0821 40.648 69.0739 43.3798 75.3706" stroke="#8C8D93" stroke-width="0.429688"/>
<path d="M66.6105 82.6169C65.8627 82.52 65.1341 82.4375 64.4248 82.3693C63.0399 82.2368 61.6586 82.0265 60.2736 81.9068C60.0572 81.8874 59.8419 81.8607 59.6279 81.8266C58.7341 81.6809 57.8387 81.5445 56.9416 81.4175C52.8925 80.848 48.9222 80.0321 45.5606 77.5648C44.9374 77.1077 44.4889 76.675 44.215 76.2667C44.0051 75.9544 43.8161 75.72 43.648 75.5635C43.6201 75.5372 43.6033 75.5058 43.5976 75.4694C43.5927 75.4407 43.58 75.4167 43.5595 75.3973C43.5529 75.3904 43.5447 75.3884 43.5349 75.3915C43.5242 75.3954 43.516 75.4024 43.5103 75.4124C43.5021 75.4287 43.4914 75.4303 43.4783 75.4171C43.4512 75.3908 43.4184 75.3753 43.3799 75.3706" stroke="#E4E9EC" stroke-width="0.429688"/>
<path d="M73.6632 63.9232C74.2327 63.9348 74.8243 63.5664 75.2081 63.2502C75.24 63.2239 75.2552 63.1906 75.2536 63.1503C75.2495 63.0023 75.2372 62.9016 75.2167 62.8481C74.3057 60.4346 72.8658 58.3485 70.897 56.5897C70.701 56.4146 70.4935 56.2787 70.2746 56.1818C70.2288 56.1616 70.1787 56.1517 70.1283 56.1529C70.078 56.1541 70.0287 56.1664 69.9843 56.1888C69.5702 56.398 69.2074 56.6676 68.8958 56.9977C68.8639 57.0317 68.8429 57.0736 68.8355 57.1185C68.8281 57.1635 68.8345 57.2094 68.854 57.251C68.9647 57.4858 69.1258 57.7163 69.3374 57.9425C70.1172 58.7805 70.8761 59.6451 71.4874 60.5946C72.1528 61.6278 72.539 62.4693 73.1122 63.7558C73.1294 63.7945 73.1597 63.8155 73.2032 63.8186C73.3742 63.8302 73.5205 63.9197 73.6632 63.9232Z" stroke="#525762" stroke-width="0.429688"/>
<path d="M29.4159 59.1453C29.4159 59.0453 29.395 58.9463 29.3546 58.854C29.3141 58.7616 29.2547 58.6777 29.1799 58.607C29.1051 58.5363 29.0163 58.4802 28.9185 58.442C28.8208 58.4037 28.716 58.384 28.6102 58.384H28.5561C28.3425 58.384 28.1375 58.4642 27.9865 58.607C27.8354 58.7498 27.7505 58.9434 27.7505 59.1453V66.0045C27.7505 66.2064 27.8354 66.4 27.9865 66.5428C28.1375 66.6855 28.3425 66.7658 28.5561 66.7658H28.6102C28.8239 66.7658 29.0288 66.6855 29.1799 66.5428C29.331 66.4 29.4159 66.2064 29.4159 66.0045V59.1453Z" stroke="#8C8D93" stroke-width="0.429688"/>
<path d="M29.4147 72.8533C29.4147 72.6554 29.3315 72.4656 29.1834 72.3257C29.0353 72.1858 28.8344 72.1072 28.625 72.1072H28.5389C28.3295 72.1072 28.1286 72.1858 27.9805 72.3257C27.8325 72.4656 27.7493 72.6554 27.7493 72.8533V80.5098C27.7493 80.7077 27.8325 80.8975 27.9805 81.0374C28.1286 81.1773 28.3295 81.2559 28.5389 81.2559H28.625C28.8344 81.2559 29.0353 81.1773 29.1834 81.0374C29.3315 80.8975 29.4147 80.7077 29.4147 80.5098V72.8533Z" stroke="#8C8D93" stroke-width="0.429688"/>
<path d="M76.8069 85.6898L74.0665 87.49C74.0091 87.528 74.0144 87.5547 74.0825 87.5702C76.8315 88.1966 79.5965 88.7696 82.3516 89.3809C83.0699 89.5405 83.6033 89.599 83.9518 89.5564C84.3085 89.513 84.928 89.3158 85.8103 88.9648C87.8185 88.1653 89.7106 87.1704 91.4867 85.9803C92.6593 85.1939 93.8155 84.4029 94.9552 83.6071C94.9904 83.5822 95.0189 83.5498 95.0386 83.5125C95.0582 83.4752 95.0684 83.434 95.0684 83.3921L95.0672 74.4107C95.0672 74.3395 95.0294 74.3011 94.954 74.2957L93.2566 74.1702" stroke="#727881" stroke-width="0.429688"/>
<path d="M93.2566 74.17L84.4475 73.6633C84.4073 73.661 84.3832 73.6788 84.375 73.7168C83.3524 78.5577 80.8297 82.5486 76.8069 85.6896" stroke="#8C8D93" stroke-width="0.429688"/>
<path d="M93.2566 74.1702C92.6917 75.0341 92.1164 75.8743 91.531 76.691C89.0157 80.2008 85.6234 83.0574 81.4328 84.6543C80.708 84.9309 80.0614 85.1292 79.4932 85.2493C78.9257 85.3702 78.0303 85.517 76.8069 85.6898" stroke="#E4E9EC" stroke-width="0.429688"/>
<path d="M57.9845 79.592C59.3159 79.5503 60.6251 79.2508 61.8375 78.7106C63.0499 78.1704 64.1417 77.4002 65.0506 76.4439C65.9595 75.4875 66.6676 74.3638 67.1346 73.1368C67.6015 71.9099 67.8182 70.6037 67.7722 69.293C67.7262 67.9822 67.4184 66.6926 66.8664 65.4975C66.3144 64.3025 65.529 63.2256 64.555 62.3283C63.5811 61.431 62.4377 60.7308 61.19 60.2677C59.9424 59.8047 58.615 59.5878 57.2837 59.6296C55.9523 59.6713 54.6431 59.9708 53.4307 60.5109C52.2183 61.0511 51.1265 61.8213 50.2176 62.7777C49.3088 63.734 48.6006 64.8578 48.1337 66.0847C47.6667 67.3117 47.45 68.6178 47.496 69.9286C47.5421 71.2393 47.8499 72.529 48.4019 73.724C48.9539 74.919 49.7393 75.9959 50.7132 76.8933C51.6871 77.7906 52.8306 78.4908 54.0782 78.9538C55.3258 79.4169 56.6532 79.6337 57.9845 79.592Z" stroke="#8C8D93" stroke-width="0.429688"/>
<path d="M57.0092 63.4792C55.2774 64.23 53.9412 65.3441 53.0007 66.8216C52.4029 67.763 51.6415 69.2146 52.5382 70.2245C53.0892 70.8428 54.0535 70.9102 54.7091 70.4012C54.8739 70.2741 55.0601 70.0456 55.2675 69.7155C55.7915 68.8822 56.2552 68.0919 57.0559 67.4771C57.5102 67.1285 58.0985 66.7442 58.8209 66.3242C61.1161 64.9889 59.447 62.4239 57.0092 63.4792Z" stroke="#8C8D93" stroke-width="0.429688"/>
<path d="M25.148 45.2039L25.1258 45.563C25.1235 45.6017 25.1051 45.6316 25.0705 45.6525L23.0398 46.8832C23.0562 46.0007 23.0586 45.1539 23.0472 44.3427C23.0139 41.9869 24.8392 39.8868 27.0421 38.971C27.9056 38.6131 28.7358 38.5922 29.464 38.5887C31.8321 38.5802 34.2297 38.5825 36.6569 38.5957C36.7217 38.5964 36.7553 38.5666 36.7577 38.5062C36.7782 37.9313 36.7901 37.3389 36.7934 36.7292C36.7983 35.6077 37.6482 35.3264 38.658 35.3218C41.2795 35.3086 43.901 35.3059 46.5225 35.3136C47.9259 35.3171 48.4524 35.6007 48.4782 36.9465C48.4889 37.4563 48.4934 37.9534 48.4917 38.4376C48.4917 38.4771 48.5083 38.5149 48.5378 38.5428C48.5673 38.5707 48.6074 38.5864 48.6491 38.5864L52.8335 38.5828C52.8411 38.5828 52.8486 38.5843 52.8557 38.587C52.8627 38.5897 52.869 38.5938 52.8744 38.5988C52.8798 38.6039 52.884 38.6099 52.8869 38.6166C52.8899 38.6232 52.8913 38.6303 52.8913 38.6375C52.8922 38.6855 52.8664 38.7308 52.8139 38.7734C52.0988 39.3561 51.3941 39.9581 50.6995 40.5795C50.6182 40.6526 50.5103 40.6934 50.3982 40.6934C43.899 40.6825 37.3924 40.6775 30.8784 40.6783C30.117 40.6783 29.2302 40.6632 28.5488 40.8003C26.325 41.2454 24.9463 43.0236 25.148 45.2039Z" fill="#1A1C28"/>
<path d="M75.7862 52.8476C71.3374 49.4307 65.4495 48.0965 59.81 48.8252C59.3156 48.8895 58.8261 48.9852 58.3414 49.1123C58.3284 49.1157 58.3147 49.116 58.3016 49.1132C58.2884 49.1103 58.2762 49.1044 58.2661 49.096C58.256 49.0876 58.2482 49.0769 58.2435 49.0649C58.2389 49.053 58.2374 49.0401 58.2394 49.0274C58.519 47.2625 58.8039 45.4913 59.0942 43.7139C59.1147 43.5907 59.1713 43.5024 59.2639 43.4489C62.2634 41.7297 65.2908 40.065 68.3461 38.455C68.3565 38.4496 68.3684 38.4475 68.3801 38.4489C68.3918 38.4504 68.4028 38.4554 68.4113 38.4631C71.9216 41.708 75.4308 44.9551 78.8083 48.3139C78.8245 48.3303 78.8345 48.3514 78.8367 48.3738C78.8389 48.3963 78.8333 48.4189 78.8206 48.4382L75.8662 52.8359C75.8441 52.8677 75.8174 52.8716 75.7862 52.8476Z" fill="#FEFEFE"/>
<path d="M98.927 39.8983C100.566 41.2263 102.044 42.6551 103.361 44.1845C103.393 44.2217 103.387 44.2527 103.344 44.2775C102.958 44.4921 102.611 44.7633 102.302 45.091C101.823 44.5773 101.352 44.0559 100.888 43.5267C99.7363 42.2157 98.6035 41.1221 97.3612 39.996C97.3537 39.9891 97.3484 39.9803 97.3462 39.9706C97.344 39.961 97.3448 39.9509 97.3486 39.9417C97.3524 39.9325 97.3591 39.9246 97.3677 39.9189C97.3762 39.9133 97.3864 39.9101 97.3969 39.91L98.927 39.8983ZM108.138 57.9204C107.85 57.7267 107.67 57.4521 107.598 57.0964C106.972 53.9992 105.762 50.7055 104.046 47.907L102.302 45.091C102.611 44.7633 102.958 44.4921 103.344 44.2775C103.387 44.2527 103.393 44.2217 103.361 44.1845C102.044 42.6551 100.566 41.2263 98.927 39.8983C100.382 39.7519 101.782 39.8112 103.051 40.5596C104.411 41.36 105.227 42.4858 105.499 43.9369C105.611 44.5355 105.582 45.2665 105.564 45.9103C105.561 46.0284 105.59 46.1457 105.65 46.2509C106.008 46.8777 106.37 47.5246 106.734 48.1917C108.089 50.6776 109.142 53.4065 109.698 56.2039C109.814 56.7888 109.825 57.2092 109.732 57.4648C109.54 57.9909 109.009 58.1428 108.138 57.9204Z" fill="#1A1C28"/>
<path d="M33.3918 45.2109L30.3217 45.2058C29.7525 45.2049 29.2902 45.6401 29.2892 46.178L29.282 50.062C29.281 50.5999 29.7417 51.0367 30.311 51.0377L33.381 51.0427C33.9502 51.0437 34.4125 50.6084 34.4135 50.0705L34.4207 46.1865C34.4217 45.6486 33.961 45.2118 33.3918 45.2109Z" fill="#1A1C28"/>
<path d="M41.6226 45.2152L37.6793 45.2087C37.1359 45.2078 36.6945 45.6233 36.6936 46.1368L36.6863 50.1045C36.6853 50.618 37.1251 51.035 37.6685 51.0359L41.6118 51.0424C42.1553 51.0433 42.5966 50.6277 42.5975 50.1142L42.6049 46.1465C42.6058 45.633 42.166 45.2161 41.6226 45.2152Z" fill="#1A1C28"/>
<path d="M75.208 63.2502C74.8243 63.5664 74.2327 63.9348 73.6632 63.9232C73.5205 63.9199 73.3741 63.8302 73.2032 63.8186C73.1597 63.8153 73.1294 63.7944 73.1122 63.7558C72.539 62.4693 72.1528 61.6278 71.4874 60.5946C70.8761 59.6451 70.1172 58.7805 69.3374 57.9425C69.1258 57.7163 68.9647 57.4858 68.854 57.251C68.8345 57.2094 68.8281 57.1635 68.8355 57.1185C68.8429 57.0736 68.8639 57.0317 68.8958 56.9977C69.2074 56.6676 69.5703 56.398 69.9844 56.1888C70.0287 56.1664 70.078 56.1541 70.1284 56.1529C70.1787 56.1517 70.2288 56.1616 70.2746 56.1818C70.4936 56.2786 70.701 56.4146 70.897 56.5897C72.8658 58.3485 74.3057 60.4346 75.2167 62.8481C75.2372 62.9016 75.2495 63.0023 75.2536 63.1503C75.2555 63.1906 75.2403 63.2239 75.208 63.2502Z" fill="white"/>
<path d="M101.137 56.9849L103.202 59.9241C103.218 59.9456 103.226 59.9706 103.228 59.9966C103.229 60.0226 103.223 60.0486 103.21 60.0717C101.523 63.0469 99.795 66.0047 98.0255 68.945C97.5343 69.7617 97.0345 70.5581 96.5261 71.3345C96.508 71.3625 96.482 71.3852 96.4512 71.4001C96.4204 71.4151 96.3859 71.4217 96.3515 71.4193L93.7833 71.2264C93.9678 71.0916 94.1752 70.8557 94.4056 70.5186C96.1424 67.9781 97.3797 65.8048 98.745 63.0376C99.2087 62.0962 99.5974 61.0782 100.009 60.0891C100.268 59.4662 100.644 58.4315 101.137 56.9849ZM101.137 56.9849C100.644 58.4315 100.268 59.4662 100.009 60.0891C99.5974 61.0782 99.2087 62.0962 98.745 63.0376C97.3797 65.8048 96.1424 67.9781 94.4056 70.5186C94.1752 70.8557 93.9678 71.0916 93.7833 71.2264L84.8302 70.7174C84.8001 70.7156 84.7719 70.7027 84.7515 70.6815C84.7311 70.6603 84.7201 70.6323 84.7208 70.6035C84.8315 65.9477 83.417 61.4907 80.6545 57.6613C79.9558 56.6932 79.1096 55.753 78.2511 54.8756C78.2352 54.8597 78.2254 54.8392 78.2231 54.8173C78.2209 54.7955 78.2264 54.7734 78.2388 54.7547L81.7737 49.5202C81.7984 49.483 81.834 49.4636 81.8807 49.4621L95.0391 48.9391C95.0697 48.938 95.1001 48.9441 95.1276 48.9569C95.1551 48.9697 95.1788 48.9887 95.1965 49.0123L101.137 56.9849Z" fill="#FDFEFE"/>
<path d="M57.9845 79.5922C55.2957 79.6765 52.6802 78.7057 50.7132 76.8935C48.7462 75.0813 47.589 72.576 47.496 69.9288C47.45 68.618 47.6667 67.3119 48.1337 66.085C48.6006 64.858 49.3088 63.7343 50.2176 62.7779C51.1265 61.8216 52.2183 61.0514 53.4307 60.5112C54.6431 59.971 55.9523 59.6715 57.2837 59.6298C58.615 59.5881 59.9424 59.8049 61.19 60.268C62.4376 60.731 63.5811 61.4312 64.555 62.3285C65.529 63.2259 66.3144 64.3028 66.8664 65.4978C67.4184 66.6928 67.7262 67.9825 67.7722 69.2932C67.8182 70.604 67.6015 71.9101 67.1346 73.1371C66.6676 74.364 65.9595 75.4878 65.0506 76.4441C64.1417 77.4005 63.0499 78.1707 61.8375 78.7109C60.6251 79.251 59.3159 79.5505 57.9845 79.5922ZM57.0093 63.4793C55.2775 64.2301 53.9413 65.3442 53.0008 66.8218C52.403 67.7631 51.6417 69.2147 52.5383 70.2247C53.0893 70.8429 54.0536 70.9104 54.7092 70.4013C54.874 70.2742 55.0602 70.0457 55.2676 69.7156C55.7916 68.8823 56.2553 68.092 57.056 67.4772C57.5103 67.1286 58.0986 66.7443 58.821 66.3243C61.1162 64.989 59.4471 62.424 57.0093 63.4793Z" fill="#1A1C28"/>
<path d="M57.0092 63.4792C59.447 62.4239 61.1161 64.9889 58.8209 66.3242C58.0985 66.7442 57.5102 67.1285 57.0559 67.4771C56.2552 68.0919 55.7915 68.8822 55.2675 69.7155C55.0601 70.0456 54.8739 70.2741 54.7091 70.4012C54.0535 70.9102 53.0892 70.8428 52.5382 70.2245C51.6415 69.2146 52.4029 67.763 53.0007 66.8216C53.9412 65.3441 55.2774 64.23 57.0092 63.4792Z" fill="#FEFEFE"/>
<path d="M93.2567 74.1702L94.9541 74.2957C95.0295 74.3012 95.0672 74.3395 95.0672 74.4108L95.0684 83.3922C95.0684 83.434 95.0582 83.4752 95.0385 83.5125C95.0189 83.5499 94.9904 83.5823 94.9552 83.6072C93.8154 84.4029 92.6593 85.194 91.4867 85.9804C89.7106 87.1705 87.8185 88.1653 85.8103 88.9649C84.928 89.3159 84.3085 89.5131 83.9518 89.5565C83.6033 89.5991 83.0699 89.5406 82.3516 89.381C79.5965 88.7697 76.8315 88.1967 74.0825 87.5703C74.0144 87.5548 74.0091 87.5281 74.0665 87.4901L76.8069 85.6898C78.0303 85.5171 78.9257 85.3702 79.4932 85.2494C80.0614 85.1293 80.708 84.9309 81.4329 84.6543C85.6234 83.0575 89.0157 80.2008 91.531 76.691C92.1165 75.8744 92.6917 75.0341 93.2567 74.1702ZM93.2567 74.1702C92.6917 75.0341 92.1165 75.8744 91.531 76.691C89.0157 80.2008 85.6234 83.0575 81.4329 84.6543C80.708 84.9309 80.0614 85.1293 79.4932 85.2494C78.9257 85.3702 78.0303 85.5171 76.8069 85.6898C80.8298 82.5488 83.3525 78.5579 84.375 73.717C84.3832 73.679 84.4074 73.6612 84.4476 73.6635L93.2567 74.1702Z" fill="#FEFEFE"/>
<path d="M43.38 75.3708C43.4185 75.3755 43.4513 75.3909 43.4784 75.4173C43.4915 75.4305 43.5022 75.4288 43.5104 75.4124C43.5161 75.4023 43.5243 75.3954 43.535 75.3915C43.5448 75.3882 43.553 75.3902 43.5595 75.3973C43.5801 75.4166 43.5928 75.4406 43.5977 75.4693C43.6034 75.5057 43.6202 75.5371 43.6481 75.5635C43.8162 75.72 44.0052 75.9543 44.2151 76.2666C44.489 76.6749 44.9375 77.1076 45.5607 77.5647C48.9223 80.0321 52.8926 80.8479 56.9417 81.4174C57.8388 81.5445 58.7342 81.6808 59.628 81.8265C59.842 81.8606 60.0573 81.8873 60.2737 81.9067C61.6587 82.0264 63.04 82.2368 64.4249 82.3692C65.1342 82.4374 65.8628 82.5199 66.6106 82.6168C58.708 88.1604 48.8743 84.9993 44.3369 77.3265C43.913 76.6106 43.594 75.9589 43.38 75.3708ZM66.6106 82.6168C65.8628 82.5199 65.1342 82.4374 64.4249 82.3692C63.04 82.2368 61.6587 82.0264 60.2737 81.9067C60.0573 81.8873 59.842 81.8606 59.628 81.8265C58.7342 81.6808 57.8388 81.5445 56.9417 81.4174C52.8926 80.8479 48.9223 80.0321 45.5607 77.5647C44.9375 77.1076 44.489 76.6749 44.2151 76.2666C44.0052 75.9543 43.8162 75.72 43.6481 75.5635C43.6202 75.5371 43.6034 75.5057 43.5977 75.4693C43.5928 75.4406 43.5801 75.4166 43.5595 75.3973C43.553 75.3902 43.5448 75.3882 43.535 75.3915C43.5243 75.3954 43.5161 75.4023 43.5104 75.4124C43.5022 75.4288 43.4915 75.4305 43.4784 75.4173C43.4513 75.3909 43.4185 75.3755 43.38 75.3708C40.6482 69.0741 42.3677 62.0826 47.4906 57.4815C50.8238 54.4877 55.6454 53.1175 60.1213 53.9612C69.2489 55.6813 74.7752 64.9091 72.8737 73.2513C71.9971 77.0973 69.9094 80.2194 66.6106 82.6174L66.6106 82.6168ZM57.9846 79.5922C59.316 79.5505 60.6252 79.251 61.8376 78.7108C63.05 78.1707 64.1418 77.4004 65.0507 76.4441C65.9596 75.4877 66.6677 74.364 67.1347 73.1371C67.6016 71.9101 67.8183 70.604 67.7723 69.2932C67.7263 67.9825 67.4185 66.6928 66.8665 65.4978C66.3145 64.3028 65.5291 63.2258 64.5551 62.3285C63.5812 61.4312 62.4378 60.731 61.1901 60.2679C59.9425 59.8049 58.6151 59.588 57.2838 59.6298C55.9524 59.6715 54.6432 59.971 53.4308 60.5112C52.2184 61.0513 51.1266 61.8216 50.2177 62.7779C49.3089 63.7343 48.6007 64.858 48.1338 66.0849C47.6668 67.3119 47.4501 68.618 47.4962 69.9288C47.5891 72.576 48.7463 75.0812 50.7133 76.8935C52.6803 78.7057 55.2959 79.6765 57.9846 79.5922Z" fill="white"/>
<path d="M43.0256 87.1658C45.4355 87.1651 47.8438 87.1732 50.2505 87.1902C50.7117 87.1934 50.9553 87.3878 51.3599 87.6934C51.9282 88.1234 52.4952 88.555 53.061 88.9881C55.1692 90.6047 58.0363 90.4292 60.5208 89.9272C61.4212 89.7459 62.2883 90.0585 63.1345 90.3944C64.2809 90.8499 65.5182 91.2772 66.8466 91.6763C71.0162 92.9303 75.4097 93.3312 79.7774 92.9245C79.7315 93.0019 79.7495 93.0426 79.8315 93.0465C80.2558 93.0662 80.6802 93.0697 81.1008 93.1232C81.7642 93.2061 82.4284 93.2816 83.0934 93.3498C83.8773 93.4304 84.6604 93.5133 85.4427 93.5985C86.0626 93.6659 86.8596 93.8403 87.5865 93.8879C87.7956 93.9007 87.9727 93.9483 88.1757 93.9844C88.2135 93.9911 88.247 94.0115 88.2692 94.0413C88.3241 94.118 88.3905 94.1626 88.4684 94.175C88.2388 94.2548 88.008 94.3307 87.7759 94.4028C79.1267 97.0723 69.7678 96.6353 61.5109 92.9651C61.3912 92.9124 61.2662 92.8973 61.1358 92.9198C60.5339 93.0267 59.9296 93.122 59.3228 93.2057C55.5705 93.724 52.3644 92.7548 49.7044 90.2979C49.6347 90.2328 49.5195 90.2007 49.3587 90.2014C46.7397 90.2061 44.1092 90.1922 41.4672 90.1596C41.3737 89.7738 41.3315 89.3093 41.3405 88.7662C41.3516 88.0863 41.4918 87.2646 42.4106 87.3332C42.643 87.3518 42.8042 87.3283 43.017 87.3029C43.0276 87.3011 43.0354 87.2961 43.0403 87.2878C43.051 87.2669 43.06 87.2476 43.0674 87.2297C43.0756 87.2127 43.0715 87.1983 43.0551 87.1867C43.0461 87.1805 43.0363 87.1736 43.0256 87.1658ZM104.046 47.907C105.762 50.7056 106.972 53.9992 107.598 57.0965C107.67 57.4521 107.85 57.7268 108.138 57.9205L108.351 60.7632C107.436 59.8489 106.543 58.9815 105.672 58.161C105.589 58.0835 105.43 57.8763 105.196 57.5393C104.483 56.5111 103.757 55.4926 103.019 54.4839C103.081 54.4257 103.085 54.3572 103.033 54.2781C102.953 54.1581 102.929 54.0329 102.961 53.9028C103.324 52.4152 103.583 50.9121 103.74 49.3935C103.75 49.3028 103.744 49.0925 103.724 48.7624C103.702 48.399 103.809 48.1139 104.046 47.907ZM27.6853 54.0306L23.036 54.0273L23.0395 46.8833L25.0702 45.6526C25.1046 45.6316 25.123 45.6018 25.1255 45.5631L25.1476 45.204C25.2575 45.0901 25.317 44.92 25.326 44.6938C25.3531 44.0139 26.3469 43.7884 26.9102 43.8918C27.5891 44.0162 27.6802 44.4369 27.6789 45.0517C27.6772 46.093 27.6809 47.1347 27.69 48.1768C27.706 50.1049 27.6669 52.0735 27.6853 54.0306ZM88.4684 94.175C88.3905 94.1626 88.3241 94.118 88.2692 94.0413C88.247 94.0115 88.2135 93.9911 88.1757 93.9844C87.9727 93.9483 87.7956 93.9007 87.5865 93.8879C86.8596 93.8403 86.0626 93.6659 85.4427 93.5985C84.6604 93.5133 83.8773 93.4304 83.0934 93.3498C82.4284 93.2816 81.7642 93.2061 81.1008 93.1232C80.6802 93.0697 80.2558 93.0662 79.8315 93.0465C79.7495 93.0426 79.7315 93.0019 79.7774 92.9245C82.7679 92.5742 85.6653 91.8878 88.4697 90.8651C91.7722 89.661 94.761 87.848 97.3501 85.5631C97.8798 85.0959 98.3845 84.64 98.8642 84.1953C98.9577 84.1076 99.0784 84.0506 99.2086 84.0325C99.6596 83.9698 100.128 83.8911 100.614 83.7966C102.548 83.4201 103.539 82.2707 104.388 80.6866C105.953 77.7641 107.097 74.7435 107.82 71.625C108.607 68.2349 108.687 64.6042 108.465 61.1513C108.462 61.0948 108.424 60.9654 108.351 60.7632L108.138 57.9205C109.009 58.1428 109.54 57.991 109.732 57.4649C109.825 57.2092 109.814 56.7889 109.698 56.2039C109.142 53.4065 108.089 50.6777 106.734 48.1918C106.37 47.5247 106.008 46.8777 105.65 46.2509C105.59 46.1458 105.561 46.0284 105.564 45.9104C105.582 45.2665 105.611 44.5355 105.499 43.937C105.227 42.4858 104.411 41.36 103.051 40.5597C101.782 39.8112 100.382 39.7519 98.927 39.8984L97.3969 39.91C97.3864 39.9102 97.3762 39.9133 97.3677 39.9189C97.3591 39.9246 97.3524 39.9325 97.3486 39.9417C97.3448 39.9509 97.344 39.961 97.3462 39.9707C97.3484 39.9803 97.3537 39.9891 97.3612 39.996C98.6035 41.1222 99.7363 42.2158 100.888 43.5267C101.352 44.0559 101.823 44.5773 102.302 45.091L104.046 47.907C103.809 48.1139 103.702 48.399 103.724 48.7624C103.744 49.0925 103.75 49.3028 103.74 49.3935C103.583 50.9121 103.324 52.4152 102.961 53.9028C102.929 54.0329 102.953 54.1581 103.033 54.2781C103.085 54.3572 103.081 54.4257 103.019 54.4839C102.379 53.637 101.75 52.7843 101.131 51.9259C99.8396 50.1315 98.5419 48.4288 97.2357 46.6879C97.1127 46.5252 97.0586 46.2218 97.0401 46.0219C96.9114 44.6126 96.7564 43.2056 96.5752 41.8009C96.5514 41.6165 96.4784 41.4526 96.3563 41.3093C94.9319 39.6357 93.7401 37.8494 92.4117 36.1154C92.1177 35.7308 91.7832 35.4611 91.3822 35.2298C90.5975 34.7758 89.7439 34.3555 88.8214 33.9689C83.5235 31.7491 78.0115 30.9693 72.2856 31.6294C68.8072 32.0303 65.394 33.0717 62.2575 34.5442C61.941 34.6929 61.6323 34.8514 61.3314 35.0195C61.2051 35.09 61.194 35.1745 61.2982 35.2728C61.4761 35.4402 61.6056 35.6339 61.6868 35.8539C61.6909 35.8651 61.6974 35.8754 61.7058 35.8842C61.7142 35.893 61.7244 35.9001 61.7357 35.905C61.7471 35.91 61.7594 35.9128 61.7719 35.9132C61.7844 35.9136 61.7969 35.9116 61.8086 35.9074C64.5473 34.887 67.3595 34.0979 70.245 33.54C70.35 33.5199 70.3701 33.5501 70.3053 33.6307C69.8592 34.1839 69.4041 34.758 68.94 35.353C68.8301 35.4941 68.6682 35.6045 68.4542 35.6843C67.4177 36.0701 66.2644 36.566 64.9942 37.1719C62.7139 38.2589 60.4937 39.4467 58.3339 40.7351C57.9428 40.9676 57.5012 41.2151 56.9871 41.157C56.0744 41.054 55.1577 41.0114 54.2368 41.0292C53.9109 41.035 53.735 41.1547 53.5185 41.3569C49.7392 44.8722 47.2223 49.0692 45.9677 53.9481C45.9608 53.9755 45.9443 54 45.9209 54.0175C45.8974 54.035 45.8684 54.0445 45.8386 54.0445L27.6853 54.0306C27.6669 52.0735 27.706 50.1049 27.69 48.1768C27.6809 47.1347 27.6772 46.093 27.6789 45.0517C27.6802 44.4369 27.5891 44.0162 26.9102 43.8918C26.3469 43.7884 25.3531 44.0139 25.326 44.6938C25.317 44.92 25.2575 45.0901 25.1476 45.204C24.9459 43.0237 26.3249 41.2453 28.5487 40.8002C29.2302 40.6631 30.117 40.6782 30.8783 40.6782C37.3923 40.6774 43.8989 40.6824 50.3981 40.6933C50.5102 40.6933 50.6181 40.6525 50.6994 40.5794C51.394 39.958 52.0987 39.356 52.8138 38.7734C52.8663 38.7307 52.8921 38.6854 52.8913 38.6374C52.8913 38.6229 52.8852 38.609 52.8743 38.5988C52.8635 38.5885 52.8488 38.5828 52.8335 38.5828L48.6491 38.5863C48.6073 38.5863 48.5673 38.5706 48.5377 38.5427C48.5082 38.5148 48.4916 38.477 48.4916 38.4375C48.4934 37.9533 48.4889 37.4562 48.4781 36.9464C48.4523 35.6006 47.9259 35.317 46.5225 35.3135C43.901 35.3058 41.2795 35.3085 38.658 35.3217C37.6481 35.3263 36.7982 35.6076 36.7933 36.7291C36.79 37.3389 36.7782 37.9312 36.7577 38.5061C36.7553 38.5665 36.7217 38.5963 36.6568 38.5956C34.2296 38.5824 31.832 38.5801 29.4639 38.5886C28.7357 38.5921 27.9055 38.613 27.0421 38.971C24.8392 39.8868 23.0139 41.9868 23.0471 44.3426C23.0586 45.1538 23.0558 46.0008 23.0395 46.8833L23.036 54.0273C22.9831 62.8751 23.0411 71.725 23.0694 80.5727C23.0793 83.4271 25.4827 86.264 28.4039 86.9659C28.8942 87.0845 29.7089 87.1472 30.8478 87.1542C34.9031 87.1798 38.9691 87.196 43.0256 87.1658C43.0363 87.1736 43.0461 87.1805 43.0551 87.1867C43.0715 87.1983 43.0756 87.2127 43.0674 87.2297C43.06 87.2476 43.051 87.2669 43.0403 87.2878C43.0354 87.2961 43.0276 87.3011 43.017 87.3029C42.8042 87.3283 42.643 87.3518 42.4106 87.3332C41.4918 87.2646 41.3516 88.0863 41.3405 88.7662C41.3315 89.3093 41.3737 89.7738 41.4672 90.1596C36.3365 90.172 32.4997 90.1724 29.9561 90.1607C24.8207 90.1374 20.4296 85.9605 19.9512 81.2408C19.9208 80.9433 19.9057 80.1681 19.9057 78.9153C19.9039 67.3616 19.9048 55.8079 19.9083 44.2541C19.9096 41.6764 21.3412 39.2195 23.3891 37.582C24.9832 36.3075 26.8343 35.659 28.9425 35.6365C30.539 35.6187 32.1191 35.6249 33.6828 35.6551C33.7312 35.6566 33.7591 35.635 33.7665 35.59C34.1392 33.4156 35.9288 32.2824 38.1969 32.2685C42.6986 32.239 45.794 32.241 47.4832 32.2743C48.4369 32.2937 49.3347 32.6117 50.1769 33.2284C50.9944 33.8281 51.4409 34.6204 51.5163 35.6051C51.5196 35.6516 51.5462 35.6752 51.5963 35.676L54.1214 35.6958C54.2283 35.6965 54.3321 35.6643 54.4166 35.604C55.2112 35.0368 56.0369 34.4832 56.8938 33.9432C61.8149 30.8413 67.6032 28.833 73.4665 28.4495C81.7873 27.9044 90.2004 30.1661 96.7956 34.9648C97.1686 35.2359 97.9025 35.8221 98.9972 36.7231C99.0275 36.7487 99.0662 36.7635 99.1067 36.765C99.5651 36.7813 100.017 36.7944 100.463 36.8045C104.701 36.8928 108.48 40.2353 108.65 44.2832C108.677 44.9329 108.649 45.6395 108.874 46.2647C109.972 49.319 110.771 52.4394 111.271 55.6262C111.387 56.3638 111.477 57.1339 111.542 57.9366C111.842 61.6355 111.812 65.0938 111.452 68.3115C110.915 73.109 109.504 77.6973 107.22 82.0765C105.888 84.6298 104.161 86.3591 101.114 86.9332C100.858 86.982 100.509 86.9042 100.28 87.1378C97.1006 90.3861 92.9099 92.7443 88.4684 94.175ZM34.4205 46.1866C34.421 45.9283 34.3129 45.6804 34.1199 45.4974C33.927 45.3144 33.665 45.2114 33.3916 45.2109L30.3216 45.2059C30.0482 45.2055 29.7859 45.3076 29.5922 45.49C29.3986 45.6723 29.2896 45.9198 29.2891 46.1781L29.2819 50.0622C29.2815 50.3205 29.3896 50.5684 29.5826 50.7513C29.7755 50.9343 30.0375 51.0373 30.3108 51.0378L33.3809 51.0429C33.6542 51.0433 33.9166 50.9411 34.1102 50.7588C34.3039 50.5765 34.4129 50.329 34.4134 50.0707L34.4205 46.1866ZM42.6049 46.1465C42.6051 46.0244 42.5799 45.9035 42.5307 45.7906C42.4814 45.6777 42.4091 45.5751 42.3179 45.4886C42.2267 45.4021 42.1184 45.3335 41.9991 45.2865C41.8798 45.2396 41.7519 45.2154 41.6226 45.2152L37.6793 45.2086C37.5501 45.2084 37.4221 45.2323 37.3027 45.2788C37.1832 45.3253 37.0746 45.3936 36.9831 45.4798C36.8915 45.566 36.8189 45.6684 36.7692 45.7811C36.7195 45.8938 36.6939 46.0147 36.6936 46.1368L36.6863 50.1045C36.6861 50.2266 36.7113 50.3475 36.7606 50.4604C36.8098 50.5733 36.8821 50.6759 36.9733 50.7624C37.0645 50.8489 37.1729 50.9175 37.2922 50.9645C37.4115 51.0114 37.5394 51.0356 37.6686 51.0359L41.6119 51.0424C41.7411 51.0426 41.8691 51.0187 41.9886 50.9722C42.108 50.9257 42.2166 50.8574 42.3082 50.7712C42.3997 50.685 42.4724 50.5826 42.522 50.4699C42.5717 50.3572 42.5974 50.2363 42.5976 50.1142L42.6049 46.1465Z" fill="white"/>
<path d="M25.148 45.2039V54.0288L23.0361 54.0272L23.0396 46.8832L25.148 45.2039Z" fill="#1A1C28"/>
<path d="M25.1465 45.2073V54.3875L23.0376 54.3858L23.0411 46.9543L25.1465 45.2073Z" fill="#1A1C28"/>
<path d="M24.3904 56.9594H36.9919V83.2708H24.3904V56.9594ZM28.5391 72.1074H28.6252C29.0626 72.1074 29.4148 72.4402 29.4148 72.8535V80.51C29.4148 80.9234 29.0626 81.2562 28.6252 81.2562H28.5391C28.1016 81.2562 27.7494 80.9234 27.7494 80.51V72.8535C27.7494 72.4402 28.1016 72.1074 28.5391 72.1074ZM28.5563 58.3843H28.6104C29.0567 58.3843 29.4161 58.7238 29.4161 59.1455V66.0047C29.4161 66.4265 29.0567 66.766 28.6104 66.766H28.5563C28.11 66.766 27.7507 66.4265 27.7507 66.0047V59.1455C27.7507 58.7238 28.11 58.3843 28.5563 58.3843ZM103.019 54.484C103.757 55.4927 104.483 56.5112 105.196 57.5394C105.43 57.8764 105.589 58.0836 105.672 58.1611C106.543 58.9816 107.436 59.849 108.351 60.7633C108.424 60.9655 108.462 61.0949 108.466 61.1514C108.687 64.6043 108.607 68.235 107.82 71.6251C107.097 74.7436 105.954 77.7642 104.388 80.6867C103.54 82.2708 102.548 83.4202 100.615 83.7967C100.128 83.8912 99.6598 83.9699 99.2088 84.0326C99.0785 84.0507 98.9579 84.1077 98.8644 84.1953C98.3847 84.6401 97.88 85.096 97.3503 85.5632C94.7612 87.8481 91.7723 89.6611 88.4698 90.8651C85.6655 91.8879 82.7681 92.5743 79.7776 92.9245C75.4099 93.3313 71.0164 92.9303 66.8468 91.6763C65.5184 91.2773 64.2811 90.85 63.1347 90.3945C62.2885 90.0586 61.4214 89.746 60.521 89.9273C58.0365 90.4293 55.1694 90.6048 53.0612 88.9882C52.4954 88.5551 51.9284 88.1235 51.3601 87.6935C50.9555 87.3879 50.7119 87.1938 50.2507 87.1903C47.844 87.1732 45.4357 87.1651 43.0258 87.1659C38.9693 87.1961 34.903 87.1798 30.8478 87.1543C29.7088 87.1473 28.8941 87.0846 28.4038 86.966C25.4826 86.264 23.0792 83.4271 23.0694 80.5728C23.0411 71.725 22.9833 62.875 23.0362 54.0272L27.6855 54.0305L45.8387 54.0445C45.8686 54.0445 45.8976 54.0349 45.921 54.0174C45.9445 53.9999 45.961 53.9755 45.9679 53.948C47.2225 49.0691 49.7394 44.8721 53.5187 41.3568C53.7352 41.1546 53.9111 41.0349 54.237 41.0291C55.1579 41.0113 56.0746 41.0539 56.9873 41.1569C57.5014 41.2151 57.943 40.9675 58.3341 40.7351C60.4939 39.4466 62.7141 38.2588 64.9944 37.1718C66.2646 36.5659 67.4179 36.07 68.4544 35.6842C68.6684 35.6044 68.8303 35.494 68.9402 35.353C69.4043 34.7579 69.8594 34.1838 70.3055 33.6306C70.3703 33.55 70.3502 33.5198 70.2452 33.54C67.3597 34.0978 64.5476 34.8869 61.8088 35.9073C61.7971 35.9116 61.7846 35.9135 61.7721 35.9131C61.7596 35.9127 61.7473 35.91 61.7359 35.905C61.7246 35.9 61.7144 35.8929 61.706 35.8841C61.6976 35.8753 61.6911 35.8651 61.687 35.8539C61.6059 35.6338 61.4763 35.4401 61.2984 35.2728C61.1942 35.1744 61.2053 35.0899 61.3316 35.0194C61.6325 34.8513 61.9412 34.6928 62.2577 34.5441C65.3942 33.0716 68.8074 32.0303 72.2858 31.6293C78.0117 30.9692 83.5237 31.749 88.8216 33.9688C89.7441 34.3554 90.5977 34.7757 91.3824 35.2298C91.7834 35.4611 92.1179 35.7307 92.4119 36.1154C93.7403 37.8494 94.9321 39.6356 96.3565 41.3092C96.4786 41.4525 96.5516 41.6164 96.5754 41.8008C96.7566 43.2055 96.9116 44.6125 97.0403 46.0219C97.0588 46.2218 97.1129 46.5251 97.2359 46.6878C98.5421 48.4288 99.8398 50.1314 101.131 51.9258C101.75 52.7843 102.38 53.6371 103.019 54.484ZM59.8101 48.8253C65.4495 48.0966 71.3374 49.4308 75.7863 52.8476C75.8174 52.8716 75.8441 52.8677 75.8662 52.836L78.8206 48.4383C78.8333 48.419 78.839 48.3963 78.8367 48.3739C78.8345 48.3514 78.8245 48.3303 78.8083 48.3139C75.4308 44.9552 71.9217 41.708 68.4113 38.4632C68.4028 38.4554 68.3919 38.4504 68.3802 38.449C68.3684 38.4475 68.3565 38.4496 68.3461 38.455C65.2909 40.0651 62.2635 41.7297 59.264 43.449C59.1713 43.5024 59.1147 43.5908 59.0942 43.7139C58.804 45.4913 58.519 47.2625 58.2394 49.0275C58.2375 49.0401 58.2389 49.053 58.2436 49.0649C58.2482 49.0769 58.256 49.0876 58.2661 49.096C58.2763 49.1044 58.2885 49.1103 58.3016 49.1132C58.3148 49.116 58.3285 49.1157 58.3415 49.1123C58.8261 48.9853 59.3156 48.8896 59.8101 48.8253ZM93.7833 71.2265L96.3515 71.4194C96.386 71.4218 96.4205 71.4151 96.4513 71.4002C96.4821 71.3852 96.508 71.3625 96.5262 71.3345C97.0346 70.5582 97.5344 69.7617 98.0255 68.9451C99.7951 66.0047 101.523 63.047 103.21 60.0718C103.223 60.0486 103.229 60.0227 103.228 59.9967C103.226 59.9707 103.218 59.9456 103.203 59.9242L101.137 56.985L95.1966 49.0124C95.1788 48.9888 95.1551 48.9697 95.1276 48.9569C95.1002 48.9442 95.0697 48.938 95.0391 48.9392L81.8808 49.4621C81.8341 49.4638 81.7984 49.4832 81.7738 49.5202L78.2388 54.7547C78.2265 54.7735 78.221 54.7955 78.2232 54.8174C78.2254 54.8393 78.2353 54.8597 78.2511 54.8756C79.1097 55.7531 79.9559 56.6933 80.6545 57.6614C83.4171 61.4908 84.8315 65.9478 84.7208 70.6035C84.7201 70.6323 84.7311 70.6603 84.7515 70.6815C84.7719 70.7028 84.8002 70.7156 84.8303 70.7174L93.7833 71.2265ZM43.38 75.3708C43.594 75.9589 43.913 76.6109 44.3369 77.3268C48.8743 84.9996 58.708 88.1607 66.6106 82.6171C69.9094 80.2191 71.9971 77.0971 72.8737 73.251C74.7752 64.9088 69.2489 55.681 60.1213 53.961C55.6454 53.1172 50.8238 54.4874 47.4906 57.4812C42.3677 62.0824 40.6482 69.0741 43.38 75.3708ZM73.6633 63.9233C74.2328 63.9349 74.8244 63.5665 75.2082 63.2504C75.2402 63.224 75.2553 63.1907 75.2537 63.1504C75.2496 63.0024 75.2373 62.9017 75.2168 62.8482C74.3058 60.4348 72.8659 58.3486 70.8971 56.5898C70.7011 56.4147 70.4937 56.2788 70.2747 56.1819C70.2289 56.1617 70.1788 56.1518 70.1284 56.153C70.0781 56.1543 70.0288 56.1665 69.9844 56.1889C69.5703 56.3981 69.2075 56.6677 68.8959 56.9978C68.864 57.0318 68.843 57.0737 68.8356 57.1186C68.8282 57.1636 68.8346 57.2096 68.8541 57.2511C68.9648 57.4859 69.1259 57.7164 69.3374 57.9426C70.1172 58.7806 70.8761 59.6452 71.4874 60.5947C72.1529 61.6279 72.5391 62.4694 73.1122 63.7559C73.1295 63.7946 73.1598 63.8156 73.2033 63.8187C73.3742 63.8303 73.5207 63.9198 73.6633 63.9233ZM29.4161 59.1455C29.4161 59.0455 29.3952 58.9465 29.3547 58.8542C29.3142 58.7618 29.2549 58.6779 29.1801 58.6072C29.1053 58.5365 29.0165 58.4805 28.9187 58.4422C28.821 58.404 28.7162 58.3843 28.6104 58.3843H28.5563C28.4505 58.3843 28.3457 58.404 28.248 58.4422C28.1503 58.4805 28.0614 58.5365 27.9866 58.6072C27.9118 58.6779 27.8525 58.7618 27.812 58.8542C27.7715 58.9465 27.7507 59.0455 27.7507 59.1455V66.0047C27.7507 66.1047 27.7715 66.2037 27.812 66.2961C27.8525 66.3884 27.9118 66.4723 27.9866 66.543C28.0614 66.6137 28.1503 66.6698 28.248 66.708C28.3457 66.7463 28.4505 66.766 28.5563 66.766H28.6104C28.7162 66.766 28.821 66.7463 28.9187 66.708C29.0165 66.6698 29.1053 66.6137 29.1801 66.543C29.2549 66.4723 29.3142 66.3884 29.3547 66.2961C29.3952 66.2037 29.4161 66.1047 29.4161 66.0047V59.1455ZM29.4148 72.8535C29.4148 72.6556 29.3315 72.4659 29.1835 72.3259C29.0354 72.186 28.8346 72.1074 28.6252 72.1074H28.5391C28.3297 72.1074 28.1287 72.186 27.9806 72.3259C27.8325 72.4659 27.7494 72.6556 27.7494 72.8535V80.51C27.7494 80.7079 27.8325 80.8977 27.9806 81.0376C28.1287 81.1775 28.3297 81.2562 28.5391 81.2562H28.6252C28.8346 81.2562 29.0354 81.1775 29.1835 81.0376C29.3315 80.8977 29.4148 80.7079 29.4148 80.51V72.8535ZM76.8071 85.6899L74.0667 87.4901C74.0093 87.5281 74.0146 87.5548 74.0827 87.5703C76.8317 88.1968 79.5967 88.7697 82.3518 89.381C83.0701 89.5406 83.6035 89.5991 83.952 89.5565C84.3087 89.5131 84.9282 89.3159 85.8105 88.965C87.8186 88.1654 89.7108 87.1705 91.4869 85.9805C92.6594 85.194 93.8156 84.403 94.9554 83.6073C94.9906 83.5823 95.0191 83.5499 95.0387 83.5126C95.0584 83.4753 95.0686 83.4341 95.0686 83.3923L95.0674 74.4109C95.0674 74.3396 95.0297 74.3012 94.9543 74.2958L93.2569 74.1703L84.4478 73.6636C84.4076 73.6614 84.3834 73.6792 84.3752 73.717C83.3527 78.5579 80.8299 82.5489 76.8071 85.6899Z" fill="#1A1C28"/>
</svg>
