<svg width="45" height="45" viewBox="0 0 45 45" fill="none" xmlns="http://www.w3.org/2000/svg">
<g style="mix-blend-mode:lighten" clip-path="url(#clip0_10_187)">
<path d="M22.5 0C10.0737 0 0 10.0737 0 22.5C0 33.0516 7.2648 41.9058 17.0649 44.3376V29.376H12.4254V22.5H17.0649V19.5372C17.0649 11.8791 20.5308 8.3295 28.0494 8.3295C29.475 8.3295 31.9347 8.6094 32.9409 8.8884V15.1209C32.4099 15.0651 31.4874 15.0372 30.3417 15.0372C26.6526 15.0372 25.227 16.4349 25.227 20.0682V22.5H32.5764L31.3137 29.376H25.227V44.8353C36.3681 43.4898 45.0009 34.0038 45.0009 22.5C45 10.0737 34.9263 0 22.5 0Z" fill="white"/>
</g>
<defs>
<clipPath id="clip0_10_187">
<rect width="45" height="45" fill="white"/>
</clipPath>
</defs>
</svg>
